<svg width="24" height="24" viewBox="0 0 24 24" fill="none" xmlns="http://www.w3.org/2000/svg">
<g clip-path="url(#clip0_4666_67654)">
<path d="M24 12C24 5.37258 18.6274 0 12 0C5.37258 0 0 5.37258 0 12C0 18.6274 5.37258 24 12 24C18.6274 24 24 18.6274 24 12Z" fill="#27BB86"/>
<path fill-rule="evenodd" clip-rule="evenodd" d="M15.5294 8C17.7188 8 19.5 9.79437 19.5 12C19.5 14.2056 17.7188 16 15.5294 16H9.47896C9.23527 16 9.03786 15.801 9.03786 15.5555C9.03786 15.31 9.23527 15.1111 9.47896 15.1111H15.5294C17.2323 15.1111 18.6177 13.7155 18.6177 12C18.6177 10.2845 17.2323 8.88888 15.5294 8.88888H5.9496C5.70591 8.88888 5.50837 8.69 5.50837 8.4445C5.50837 8.199 5.70591 8 5.9496 8H15.5294ZM14.2059 12C14.2059 12.7351 14.7996 13.3334 15.5295 13.3334C16.2592 13.3334 16.8529 12.7351 16.8529 12C16.8529 11.2649 16.2592 10.6666 15.5295 10.6666C14.7996 10.6666 14.2059 11.2649 14.2059 12ZM17.7353 12C17.7353 13.2254 16.7457 14.2222 15.5295 14.2222C14.3131 14.2222 13.3236 13.2254 13.3236 12C13.3236 10.7746 14.3131 9.77775 15.5295 9.77775C16.7457 9.77775 17.7353 10.7746 17.7353 12ZM12.5042 10.6667H7.96643C7.72273 10.6667 7.5252 10.4677 7.5252 10.2222C7.5252 9.97669 7.72273 9.77781 7.96643 9.77781H12.5042C12.7479 9.77781 12.9454 9.97669 12.9454 10.2222C12.9454 10.4677 12.7479 10.6667 12.5042 10.6667ZM12.9454 13.7778C12.9454 14.0233 12.7479 14.2223 12.5042 14.2223H7.46225C7.21855 14.2223 7.02102 14.0233 7.02102 13.7778C7.02102 13.5323 7.21855 13.3333 7.46225 13.3333H12.5042C12.7479 13.3333 12.9454 13.5323 12.9454 13.7778ZM12.4412 12C12.4412 12.2455 12.2437 12.4445 12 12.4445H4.94123C4.69754 12.4445 4.5 12.2455 4.5 12C4.5 11.7545 4.69754 11.5555 4.94123 11.5555H12C12.2437 11.5555 12.4412 11.7545 12.4412 12Z" fill="white"/>
</g>
<defs>
<clipPath id="clip0_4666_67654">
<rect width="24" height="24" fill="white"/>
</clipPath>
</defs>
</svg>
